<svg width="40" height="40" viewBox="0 0 40 40" fill="none" xmlns="http://www.w3.org/2000/svg">
<path d="M18.0709 21.8626V16.1432C18.0709 15.47 17.5252 14.9243 16.852 14.9243C16.1788 14.9243 15.6331 15.47 15.6331 16.1432V21.8626" stroke="#EB4B38" stroke-width="1.21008" stroke-miterlimit="10" stroke-linecap="round" stroke-linejoin="round"/>
<path d="M20.5086 21.8626V14.8937C20.5086 14.2205 19.9629 13.6748 19.2897 13.6748C18.6165 13.6748 18.0708 14.2205 18.0708 14.8937V21.8626" stroke="#EB4B38" stroke-width="1.21008" stroke-miterlimit="10" stroke-linecap="round" stroke-linejoin="round"/>
<path d="M22.9408 21.8626V14.8937C22.9408 14.2205 22.395 13.6748 21.7218 13.6748C21.0487 13.6748 20.5029 14.2205 20.5029 14.8937V21.8626" stroke="#EB4B38" stroke-width="1.21008" stroke-miterlimit="10" stroke-linecap="round" stroke-linejoin="round"/>
<path d="M25.3785 21.8626V16.1432C25.3785 15.47 24.8328 14.9243 24.1596 14.9243C23.4864 14.9243 22.9407 15.47 22.9407 16.1432V21.8626" stroke="#EB4B38" stroke-width="1.21008" stroke-miterlimit="10" stroke-linecap="round" stroke-linejoin="round"/>
<path d="M17.4791 39.4158H16.8225C16.1656 39.4158 15.6331 38.8833 15.6331 38.2264L15.6328 31.1938" stroke="#EB4B38" stroke-width="1.21008" stroke-miterlimit="10" stroke-linecap="round" stroke-linejoin="round"/>
<path d="M25.378 21.8628V26.9218C25.378 27.5571 25.2223 28.1831 24.925 28.7441L23.9689 30.5428L24.509 38.1418C24.5579 38.8301 24.0127 39.4155 23.3227 39.4155H20.2173" stroke="#EB4B38" stroke-width="1.21008" stroke-miterlimit="10" stroke-linecap="round" stroke-linejoin="round"/>
<path d="M15.6329 31.1937V28.9438L13.6787 26.4955C13.2363 25.9412 12.9954 25.253 12.9954 24.5439V20.9379C12.9954 20.2013 13.5988 19.6074 14.3353 19.6193C15.0553 19.6309 15.6329 20.2179 15.6329 20.9379V23.53" stroke="#EB4B38" stroke-width="1.21008" stroke-miterlimit="10" stroke-linecap="round" stroke-linejoin="round"/>
<path d="M19.9693 7.39475L21.9142 8.41728C22.3216 8.63142 22.7977 8.28552 22.7199 7.83188L22.3485 5.66618L23.922 4.13243C24.2515 3.81117 24.0697 3.25144 23.6143 3.18524L21.4398 2.86931L20.4674 0.898895C20.2637 0.486176 19.6752 0.486176 19.4714 0.898895L18.4989 2.86931L16.3244 3.18524C15.869 3.25144 15.6871 3.81117 16.0167 4.13243L17.5901 5.66618L17.2187 7.83188C17.141 8.28552 17.617 8.63142 18.0244 8.41728L19.9693 7.39475Z" stroke="#EB4B38" stroke-width="1.21008" stroke-miterlimit="10" stroke-linecap="round" stroke-linejoin="round"/>
<path d="M12.4631 9.68799V10.5872" stroke="#EB4B38" stroke-width="1.21008" stroke-miterlimit="10" stroke-linecap="round" stroke-linejoin="round"/>
<path d="M12.4631 13.4453V14.3445" stroke="#EB4B38" stroke-width="1.21008" stroke-miterlimit="10" stroke-linecap="round" stroke-linejoin="round"/>
<path d="M14.7918 12.0161H13.8926" stroke="#EB4B38" stroke-width="1.21008" stroke-miterlimit="10" stroke-linecap="round" stroke-linejoin="round"/>
<path d="M11.034 12.0161H10.1348" stroke="#EB4B38" stroke-width="1.21008" stroke-miterlimit="10" stroke-linecap="round" stroke-linejoin="round"/>
<circle cx="7.87758" cy="6.65712" r="0.586805" fill="#EB4B38"/>
<path d="M34.13 22.6519L38.4732 23.7886C39.017 23.9302 39.3957 24.4216 39.3957 24.9834V31.7606C39.3957 32.4037 38.7729 32.8622 38.1595 32.6721L30.912 30.4266L28.9302 30.896C28.3121 31.0415 27.6666 31.0337 27.0524 30.8733L24.1912 30.1245" stroke="#EB4B38" stroke-width="1.21008" stroke-miterlimit="10" stroke-linecap="round" stroke-linejoin="round"/>
<path d="M25.3782 17.6357L27.8866 18.2914C28.572 18.4714 29.1768 18.8782 29.6016 19.447L31.4755 21.957" stroke="#EB4B38" stroke-width="1.21008" stroke-miterlimit="10" stroke-linecap="round" stroke-linejoin="round"/>
<path d="M25.3782 20.3623L26.5471 20.6682L27.5414 20.9281" stroke="#EB4B38" stroke-width="1.21008" stroke-miterlimit="10" stroke-linecap="round" stroke-linejoin="round"/>
<path d="M8.52462 21.957L1.52646 23.7886C0.982689 23.9302 0.604004 24.4215 0.604004 24.9833V31.7605C0.604004 32.4036 1.2268 32.8621 1.84021 32.672L9.08764 30.4265L11.0695 30.8959C11.6876 31.0415 12.3331 31.0337 12.9473 30.8733L15.6333 30.1707" stroke="#EB4B38" stroke-width="1.21008" stroke-miterlimit="10" stroke-linecap="round" stroke-linejoin="round"/>
<path d="M8.52441 21.957L10.3983 19.447C10.8231 18.8782 11.4279 18.4714 12.1141 18.2914L15.6021 17.3791C15.6122 17.376 15.6232 17.3736 15.6334 17.3721" stroke="#EB4B38" stroke-width="1.21008" stroke-miterlimit="10" stroke-linecap="round" stroke-linejoin="round"/>
</svg>
