<svg width="40" height="40" viewBox="0 0 40 40" fill="none" xmlns="http://www.w3.org/2000/svg">
<g clip-path="url(#clip0_44_1631)">
<path d="M21.7188 39.1429V36.9884C21.7188 33.8906 24.23 31.3794 27.3277 31.3794H30.6519C31.7602 31.3794 32.6587 32.2778 32.6587 33.3862C32.6587 34.4945 31.7602 35.393 30.6519 35.393H27.8978" stroke="#EB4B38" stroke-width="1.71875" stroke-miterlimit="10" stroke-linecap="round" stroke-linejoin="round"/>
<path d="M26.9304 39.143H31.1607C34.3801 39.143 37.2074 37.0034 38.082 33.905L39.0756 30.3852C39.3827 29.2971 38.5652 28.2168 37.4346 28.2168C36.6991 28.2168 36.0464 28.6884 35.8156 29.3867L34.7134 32.721C34.1862 34.3159 32.6957 35.393 31.016 35.393H27.8979" stroke="#EB4B38" stroke-width="1.71875" stroke-miterlimit="10" stroke-linecap="round" stroke-linejoin="round"/>
<path d="M18.2812 39.1429V36.9884C18.2812 33.8906 15.77 31.3794 12.6722 31.3794H9.34811C8.23982 31.3794 7.34131 32.2778 7.34131 33.3862C7.34131 34.4945 8.23975 35.393 9.34811 35.393H12.1022" stroke="#EB4B38" stroke-width="1.71875" stroke-miterlimit="10" stroke-linecap="round" stroke-linejoin="round"/>
<path d="M13.0697 39.143H8.83943C5.61998 39.143 2.79271 37.0034 1.9181 33.905L0.92451 30.3852C0.6174 29.2971 1.4349 28.2168 2.56553 28.2168C3.30099 28.2168 3.95365 28.6884 4.18451 29.3867L5.2867 32.721C5.81388 34.3159 7.30435 35.393 8.98404 35.393H12.1022" stroke="#EB4B38" stroke-width="1.71875" stroke-miterlimit="10" stroke-linecap="round" stroke-linejoin="round"/>
<path d="M20 10.25V29.1408" stroke="#EB4B38" stroke-width="1.71875" stroke-miterlimit="10" stroke-linecap="round" stroke-linejoin="round"/>
<path d="M20 10.25C21.2081 10.25 22.1875 9.27062 22.1875 8.0625C22.1875 6.85438 21.2081 5.875 20 5.875C18.7919 5.875 17.8125 6.85438 17.8125 8.0625C17.8125 9.27062 18.7919 10.25 20 10.25Z" stroke="#EB4B38" stroke-width="1.71875" stroke-miterlimit="10" stroke-linecap="round" stroke-linejoin="round"/>
<path d="M23.6831 22.3539C23.0608 20.0236 23.6636 17.4343 25.4917 15.6062C27.3198 13.7781 29.9091 13.1753 32.2394 13.7976C32.8616 16.1278 32.2589 18.7171 30.4308 20.5453C28.6026 22.3734 26.0133 22.9761 23.6831 22.3539Z" stroke="#EB4B38" stroke-width="1.71875" stroke-miterlimit="10" stroke-linecap="round" stroke-linejoin="round"/>
<path d="M27.2944 18.7427L20.0369 26.0003" stroke="#EB4B38" stroke-width="1.71875" stroke-miterlimit="10" stroke-linecap="round" stroke-linejoin="round"/>
<path d="M16.3168 22.3539C16.939 20.0236 16.3363 17.4343 14.5082 15.6062C12.68 13.7781 10.0907 13.1753 7.7605 13.7976C7.13824 16.1278 7.74097 18.7171 9.56909 20.5453C11.3972 22.3734 13.9865 22.9761 16.3168 22.3539Z" stroke="#EB4B38" stroke-width="1.71875" stroke-miterlimit="10" stroke-linecap="round" stroke-linejoin="round"/>
<path d="M12.7056 18.7427L19.9631 26.0003" stroke="#EB4B38" stroke-width="1.71875" stroke-miterlimit="10" stroke-linecap="round" stroke-linejoin="round"/>
<path d="M39.1406 20.0024C39.1406 9.43135 30.5711 0.861816 20 0.861816C9.42891 0.861816 0.859375 9.43135 0.859375 20.0024" stroke="#EB4B38" stroke-width="1.71875" stroke-miterlimit="10" stroke-linecap="round" stroke-linejoin="round"/>
</g>
<defs>
<clipPath id="clip0_44_1631">
<rect width="40" height="40" fill="white" transform="translate(0 0.00244141)"/>
</clipPath>
</defs>
</svg>
