<svg width="40" height="40" viewBox="0 0 40 40" fill="none" xmlns="http://www.w3.org/2000/svg">
<path d="M23.0771 23.462C23.5019 23.462 23.8463 23.1175 23.8463 22.6927V18.0773C23.8463 17.6526 23.5019 17.3081 23.0771 17.3081C22.6523 17.3081 22.3079 17.6526 22.3079 18.0773V22.6927C22.3079 23.1175 22.6523 23.462 23.0771 23.462Z" fill="#EB4B38"/>
<path d="M16.923 23.462C17.3479 23.462 17.6923 23.1175 17.6923 22.6927V18.0773C17.6923 17.6526 17.3479 17.3081 16.923 17.3081C16.4982 17.3081 16.1538 17.6526 16.1538 18.0773V22.6927C16.1538 23.1175 16.4982 23.462 16.923 23.462Z" fill="#EB4B38"/>
<path d="M38.4616 4.23096H1.53852C1.11367 4.23096 0.769287 4.57534 0.769287 5.00019V8.84634C0.769287 9.27119 1.11367 9.61557 1.53852 9.61557H3.07698V31.9233C3.07698 32.348 3.42136 32.6925 3.84621 32.6925H6.1539V35.0002C6.1539 35.425 6.49829 35.7694 6.92313 35.7694H11.5385C11.9634 35.7694 12.3077 35.425 12.3077 35.0002V32.6925H27.6924V35.0002C27.6924 35.425 28.0368 35.7694 28.4616 35.7694H33.077C33.5017 35.7694 33.8462 35.425 33.8462 35.0002V32.6925H36.1539C36.5787 32.6925 36.9231 32.348 36.9231 31.9233V9.61557H38.4616C38.8864 9.61557 39.2308 9.27119 39.2308 8.84634V5.00019C39.2308 4.57534 38.8864 4.23096 38.4616 4.23096ZM4.61544 9.61557H19.2308V31.154C17.1944 31.154 6.07806 31.154 4.61544 31.154V9.61557ZM10.7693 34.231H7.69236V32.6925H10.7693V34.231ZM32.3077 34.231H29.2308V32.6925H32.3077V34.231ZM35.3847 31.154C33.9568 31.154 22.3128 31.154 20.7693 31.154V9.61557H35.3847V31.154ZM37.6924 8.07711C36.6836 8.07711 3.85783 8.07711 2.30775 8.07711V5.76942H37.6924V8.07711Z" fill="#EB4B38"/>
</svg>
