<svg width="40" height="38" viewBox="0 0 40 38" fill="none" xmlns="http://www.w3.org/2000/svg">
<path d="M11.9004 0.791016V35.2645" stroke="#EB4B38" stroke-width="1.5625" stroke-miterlimit="10" stroke-linecap="round" stroke-linejoin="round"/>
<path d="M11.9004 28.5146H0.78125" stroke="#EB4B38" stroke-width="1.5625" stroke-miterlimit="10" stroke-linecap="round" stroke-linejoin="round"/>
<path d="M5.42065 31.8896H7.26089" stroke="#EB4B38" stroke-width="1.5625" stroke-miterlimit="10" stroke-linecap="round" stroke-linejoin="round"/>
<path d="M8.71143 19.6213V16.4346" stroke="#EB4B38" stroke-width="1.5625" stroke-miterlimit="10" stroke-linecap="round" stroke-linejoin="round"/>
<path d="M15.0916 19.6213V16.4346" stroke="#EB4B38" stroke-width="1.5625" stroke-miterlimit="10" stroke-linecap="round" stroke-linejoin="round"/>
<path d="M18.6368 28.3352V30.8796C18.6368 33.2956 20.6056 35.2644 23.0216 35.2644H32.5596C34.9734 35.2644 36.9443 33.2956 36.9443 30.8796V28.3352H37.591C38.4879 28.3352 39.2186 27.6044 39.2186 26.7075C39.2186 25.8128 38.4879 25.082 37.591 25.082H35.3167C34.422 25.082 33.6912 25.8128 33.6912 26.7075V30.8797C33.6912 31.4998 33.1775 32.0113 32.5596 32.0113H23.0216C22.4015 32.0113 21.89 31.4998 21.89 30.8797V26.7075C21.89 25.8128 21.1592 25.082 20.2623 25.082H17.988C17.0933 25.082 16.3625 25.8128 16.3625 26.7075C16.3625 27.6044 17.0933 28.3352 17.988 28.3352H18.6368Z" stroke="#EB4B38" stroke-width="1.5625" stroke-miterlimit="10" stroke-linecap="round" stroke-linejoin="round"/>
<path d="M20.4263 25.0909V22.6327C20.4263 19.6564 22.8622 17.2227 25.8363 17.2227H29.7428C32.7169 17.2227 35.1528 19.6564 35.1528 22.6327V25.0909" stroke="#EB4B38" stroke-width="1.5625" stroke-miterlimit="10" stroke-linecap="round" stroke-linejoin="round"/>
<path d="M23.0217 18.02V0.791016H0.78125V35.2645H23.0217" stroke="#EB4B38" stroke-width="1.5625" stroke-miterlimit="10" stroke-linecap="round" stroke-linejoin="round"/>
<path d="M5.29443 37.209V35.2646M18.5085 37.209V35.2646" stroke="#EB4B38" stroke-width="1.5625" stroke-miterlimit="10" stroke-linecap="round" stroke-linejoin="round"/>
<path d="M32.5597 37.209V35.2646M23.0217 37.209V35.2646" stroke="#EB4B38" stroke-width="1.5625" stroke-miterlimit="10" stroke-linecap="round" stroke-linejoin="round"/>
</svg>
