<svg width="40" height="40" viewBox="0 0 40 40" fill="none" xmlns="http://www.w3.org/2000/svg">
<g clip-path="url(#clip0_44_1985)">
<path d="M39.375 38.3616H33.7246C33.4979 37.4384 32.7793 36.6934 31.8236 36.4545L30.4647 36.1146L32.1823 27.7847C32.5119 26.1842 31.6037 24.5544 30.0314 24.011C26.1886 22.6774 27.503 23.2679 23.968 22.4606C25.1981 21.7129 26.8925 20.643 27.4213 20.1142C28.0407 19.494 29.9256 17.6065 29.9256 15.8012C29.9256 15.2923 29.7718 14.7316 29.4681 14.1293L39.3354 4.26203C39.764 3.83354 40 3.26373 40 2.65768C40 0.649043 37.5521 -0.372069 36.1268 1.05332C35.8826 1.29736 35.8826 1.69304 36.1268 1.93709C36.3708 2.18114 36.7665 2.18114 37.0105 1.93709C37.651 1.29682 38.75 1.75578 38.75 2.6576C38.75 2.92977 38.644 3.18561 38.4516 3.3781L26.9521 14.8777C26.5572 15.2725 26.8423 15.9446 27.3941 15.9446C27.733 15.9446 27.8314 15.7661 28.521 15.0766C28.622 15.3447 28.6756 15.5897 28.6756 15.8012C28.6756 16.6559 27.9561 17.8098 26.5338 19.234C26.0277 19.7401 23.7291 21.1635 22.193 22.0661L20.0787 21.8018C19.7361 21.7586 19.4239 22.0019 19.3811 22.3444C19.3383 22.6869 19.5812 22.9992 19.9237 23.042L22.2125 23.3282C27.5278 24.6315 25.4363 23.7533 29.6321 25.1956C30.5936 25.5302 31.1638 26.5349 30.9584 27.5324L30.1636 31.387H28.1183L28.4483 28.4948C28.488 28.1467 28.2334 27.8332 27.8838 27.8015C20.4249 27.1248 21.1242 27.9464 18.5647 27.0554C18.3969 26.9988 18.1423 26.8997 17.9637 26.8073C16.4358 26.0164 16.1072 23.726 16.59 22.4384C17.1819 22.0195 17.7715 21.5348 18.343 20.9966C18.5944 20.76 18.6062 20.3645 18.3696 20.1131C18.133 19.8619 17.7375 19.85 17.4861 20.0866C16.8416 20.6934 16.0361 21.3171 15.9851 21.3288C15.8277 21.3655 15.784 21.4171 15.1621 21.8256C13.6082 22.8466 13.9096 22.6482 5.85112 29.4218L0.970308 32.6782C0.115827 33.2482 -0.221731 34.3154 0.149419 35.2732C1.16116 37.884 1.15967 37.9626 1.44137 38.3616H0.627281C0.282145 38.3616 0.00231796 38.6414 0.00231796 38.9866C0.00231796 39.3317 0.282145 39.6115 0.627281 39.6115H39.375C39.7201 39.6115 40 39.3317 40 38.9866C40 38.6414 39.7201 38.3616 39.375 38.3616ZM15.1388 23.3461C15.0384 24.9266 15.638 26.6971 16.9444 27.6416C14.6204 28.7229 11.502 29.9638 7.67679 31.9366L6.97035 30.1138C13.1622 24.9083 14.197 24.0059 15.1388 23.3461ZM1.66402 33.718L5.92494 30.8752L6.57842 32.5613L3.67765 34.4087C3.46485 34.5442 3.35439 34.7945 3.39767 35.043L3.97427 38.3566C3.24892 38.409 2.54186 37.9879 2.2657 37.2753L1.3149 34.8216C1.15702 34.4142 1.3006 33.9604 1.66402 33.718ZM4.70048 35.2392C7.54219 33.4295 7.96732 32.9736 15.0535 29.8573C16.3312 29.2954 17.4458 28.8044 18.4145 28.3216C20.9805 29.1364 20.7976 28.4486 27.1336 28.9901C26.2241 36.9618 26.4506 35.4105 26.0759 36.9091C25.9523 37.4037 26.0048 37.9128 26.2169 38.3615H5.24381L4.70048 35.2392ZM28.1858 38.3616C27.5844 38.3616 27.1424 37.7967 27.2885 37.2124C27.6891 35.6099 27.5149 36.6737 27.9755 32.637H29.9056L29.1196 36.4493C29.0519 36.7774 29.255 37.1005 29.58 37.1817L31.5204 37.6671C31.91 37.7645 32.2241 38.0233 32.399 38.3616H28.1858Z" fill="#EB4B38"/>
<path d="M21.7168 6.70025C21.8055 7.92839 22.3089 9.06621 23.1468 9.96991C22.5868 12.265 21.7221 14.3788 20.5728 16.2567C20.3926 16.5512 20.4851 16.9358 20.7796 17.1161C21.0757 17.2974 21.4598 17.2018 21.6389 16.9093C22.7552 15.0854 23.6176 13.0557 24.2085 10.8642C24.5216 11.0673 24.8533 11.2379 25.197 11.3736L25.5454 11.6347L24.6275 12.5526C24.2326 12.9474 24.5176 13.6195 25.0694 13.6195C25.2293 13.6195 25.3893 13.5584 25.5113 13.4364C32.0054 6.94235 20.4317 18.516 33.5234 5.42431C34.7016 4.24618 35.3504 2.67979 35.3504 1.01364C35.3504 0.668499 35.0706 0.388672 34.7255 0.388672C34.3803 0.388672 34.1005 0.668499 34.1005 1.01364C34.1005 2.3459 33.5817 3.59848 32.6397 4.54054L29.9258 7.25444C29.9258 5.80304 30.0326 4.97489 29.3986 3.85855C28.3241 1.96499 25.8915 1.26768 23.928 2.25559C22.9877 0.648422 20.5394 0.868019 19.9183 2.62651L19.4991 3.8173C18.9837 5.27565 20.1381 6.78869 21.7168 6.70025ZM28.111 4.17376C27.5235 4.99309 26.5746 5.47384 25.5589 5.48759C24.6467 5.50033 24.7082 6.739 25.5142 6.739C26.6862 6.739 27.8196 6.28176 28.6511 5.4615C28.6844 5.70492 28.6757 5.55009 28.6757 8.50421L26.6956 10.4843C25.8806 10.3732 25.1432 10.0444 24.5486 9.57079L25.0746 8.26548C25.2156 7.9155 25.0168 7.51052 24.633 7.4231C24.3389 7.35592 24.0313 7.50958 23.915 7.79832L23.6142 8.54515C23.1847 7.88276 22.9509 7.11695 22.9509 6.30762C22.9509 6.2281 22.9421 6.24958 22.9951 6.20661C23.3279 5.93702 23.5561 5.58993 23.6797 5.24143C24.0986 4.05252 24.1819 3.87433 24.2131 3.53052C25.4661 2.71455 27.1867 2.97118 28.111 4.17376ZM20.6777 4.2329L21.0969 3.04203C21.2332 2.65627 21.6072 2.41402 22.0083 2.41402C22.6645 2.41402 23.1328 3.03258 22.9202 3.63559C22.5129 4.79162 22.486 5.09191 22.0862 5.3208C21.2874 5.77148 20.3983 5.02426 20.6777 4.2329Z" fill="#EB4B38"/>
<path d="M19.222 19.1902C19.4905 19.406 19.8861 19.3615 20.1028 19.0919C20.1346 19.0524 20.1664 19.0128 20.1982 18.9725C20.412 18.7015 20.3656 18.3085 20.0946 18.0948C19.8236 17.881 19.4305 17.9274 19.2169 18.1985C19.1875 18.2357 19.1581 18.2722 19.1243 18.3142C18.9081 18.5833 18.9531 18.9739 19.222 19.1902Z" fill="#EB4B38"/>
</g>
<defs>
<clipPath id="clip0_44_1985">
<rect width="40" height="40" fill="white"/>
</clipPath>
</defs>
</svg>
