<svg width="40" height="24" viewBox="0 0 40 24" fill="none" xmlns="http://www.w3.org/2000/svg">
<path d="M7.13563 0.949219C4.83868 1.02828 2.17603 2.37117 2.17603 6.3407C2.17603 8.18133 2.42204 9.62391 2.78032 10.7988" stroke="#EB4B38" stroke-width="1.17188" stroke-miterlimit="10" stroke-linecap="round" stroke-linejoin="round"/>
<path d="M19.9984 6.1666C19.8989 1.19785 15.5335 0.476751 13.2013 1.16792C12.5438 1.36284 12.0023 1.53261 11.6321 1.65128C11.2781 1.7648 10.8987 1.7648 10.5447 1.65128C10.3491 1.58855 10.1057 1.51167 9.82275 1.42425" stroke="#EB4B38" stroke-width="1.17188" stroke-miterlimit="10" stroke-linecap="round" stroke-linejoin="round"/>
<path d="M37.3066 10.501C37.6173 9.38199 37.8242 8.0287 37.8242 6.34066C37.8242 1.2148 33.3845 0.46886 31.0254 1.168C30.3679 1.36292 29.8264 1.53269 29.4562 1.65136C29.1022 1.76488 28.7228 1.76488 28.3688 1.65136C27.9985 1.53261 27.4569 1.36284 26.7991 1.16792C24.4668 0.476751 20.1013 1.19784 20.002 6.16667" stroke="#EB4B38" stroke-width="1.17188" stroke-miterlimit="10" stroke-linecap="round" stroke-linejoin="round"/>
<path d="M17.0637 8.97644C17.1429 8.46082 17.6134 6.34082 20 6.34082C22.3058 6.34082 22.8152 8.3891 22.9166 9.00926" stroke="#EB4B38" stroke-width="1.17188" stroke-miterlimit="10" stroke-linecap="round" stroke-linejoin="round"/>
<path d="M20.166 12.7538C20.2752 11.4432 21.3129 8.08496 29.0797 8.08496C36.3976 8.08496 37.8266 11.0662 38.0898 12.5071" stroke="#EB4B38" stroke-width="1.17188" stroke-miterlimit="10" stroke-linecap="round" stroke-linejoin="round"/>
<path d="M2.20386 12.5071C2.42612 11.0662 3.77026 8.08496 11.0882 8.08496C18.3256 8.08496 19.8028 11.001 20.0892 12.459" stroke="#EB4B38" stroke-width="1.17188" stroke-miterlimit="10" stroke-linecap="round" stroke-linejoin="round"/>
<path d="M32.0921 23.0548H35.0368C37.4544 23.0548 39.4141 21.0911 39.4141 18.6687V12.7035C39.4141 12.4723 39.1904 12.3067 38.9702 12.3756C38.552 12.5065 38.1426 12.6465 37.6708 12.7932C36.519 13.1513 35.2835 13.1409 34.1377 12.7641C33.6441 12.6018 33.1573 12.4479 32.6958 12.3058C30.7045 11.6929 28.588 11.5873 26.5432 11.9982L23.8171 12.5462C21.4317 13.0252 18.9721 13.019 16.5899 12.5274L14.0187 11.9974C12.0402 11.5887 9.98898 11.6639 8.04797 12.2198C7.42422 12.3983 6.74781 12.5985 6.0625 12.8123C4.91242 13.1709 3.67891 13.1623 2.53484 12.7848C2.01961 12.6148 1.51094 12.4538 1.02977 12.3058C1.02828 12.3054 1.0268 12.3049 1.02531 12.3045C0.806563 12.2373 0.585938 12.4045 0.585938 12.6337V18.6687C0.585938 21.0911 2.5457 23.0548 4.96328 23.0548H29.3142" stroke="#EB4B38" stroke-width="1.17188" stroke-miterlimit="10" stroke-linecap="round" stroke-linejoin="round"/>
</svg>
