<svg width="40" height="40" viewBox="0 0 40 40" fill="none" xmlns="http://www.w3.org/2000/svg">
<g clip-path="url(#clip0_44_1942)">
<path d="M29.9947 17.583H38.3007C38.8367 17.583 39.2703 18.0174 39.2703 18.5525V23.1064H26.2203H20.1976H14.1749H1.12417V18.5525C1.12417 18.0174 1.55854 17.583 2.09448 17.583H13.1476" stroke="#EB4B38" stroke-width="1.17188" stroke-miterlimit="10" stroke-linecap="round" stroke-linejoin="round"/>
<path d="M14.8828 27.8238H2.09448C1.55854 27.8238 1.12417 27.3895 1.12417 26.8543V23.1074H39.2703V26.8543C39.2703 27.3895 38.8367 27.8238 38.3007 27.8238H25.5117" stroke="#EB4B38" stroke-width="1.17188" stroke-miterlimit="10" stroke-linecap="round" stroke-linejoin="round"/>
<path d="M3.74259 23.1074H36.6526V25.3827H3.74259V23.1074Z" stroke="#EB4B38" stroke-width="1.17188" stroke-miterlimit="10" stroke-linecap="round" stroke-linejoin="round"/>
<path d="M33.9102 23.1069V25.3822" stroke="#EB4B38" stroke-width="1.17188" stroke-miterlimit="10" stroke-linecap="round" stroke-linejoin="round"/>
<path d="M31.1677 23.1069V25.3822" stroke="#EB4B38" stroke-width="1.17188" stroke-miterlimit="10" stroke-linecap="round" stroke-linejoin="round"/>
<path d="M28.4253 23.1069V25.3822" stroke="#EB4B38" stroke-width="1.17188" stroke-miterlimit="10" stroke-linecap="round" stroke-linejoin="round"/>
<path d="M25.6829 23.1069V25.3822" stroke="#EB4B38" stroke-width="1.17188" stroke-miterlimit="10" stroke-linecap="round" stroke-linejoin="round"/>
<path d="M22.9402 23.1069V25.3822" stroke="#EB4B38" stroke-width="1.17188" stroke-miterlimit="10" stroke-linecap="round" stroke-linejoin="round"/>
<path d="M20.1978 23.1069V25.3822" stroke="#EB4B38" stroke-width="1.17188" stroke-miterlimit="10" stroke-linecap="round" stroke-linejoin="round"/>
<path d="M17.4553 23.1069V25.3822" stroke="#EB4B38" stroke-width="1.17188" stroke-miterlimit="10" stroke-linecap="round" stroke-linejoin="round"/>
<path d="M14.7126 23.1069V25.3822" stroke="#EB4B38" stroke-width="1.17188" stroke-miterlimit="10" stroke-linecap="round" stroke-linejoin="round"/>
<path d="M11.9702 23.1069V25.3822" stroke="#EB4B38" stroke-width="1.17188" stroke-miterlimit="10" stroke-linecap="round" stroke-linejoin="round"/>
<path d="M9.22778 23.1069V25.3822" stroke="#EB4B38" stroke-width="1.17188" stroke-miterlimit="10" stroke-linecap="round" stroke-linejoin="round"/>
<path d="M6.48511 23.1069V25.3822" stroke="#EB4B38" stroke-width="1.17188" stroke-miterlimit="10" stroke-linecap="round" stroke-linejoin="round"/>
<path d="M36.7371 27.8237L38.4033 38.0441C38.5204 38.7622 37.966 39.4143 37.2384 39.4143C36.7223 39.4143 36.266 39.079 36.112 38.5864L33.5277 30.3251H32.0435C31.4066 30.3251 30.868 29.8533 30.7843 29.2218L30.5989 27.8237H36.7371Z" stroke="#EB4B38" stroke-width="1.17188" stroke-miterlimit="10" stroke-linecap="round" stroke-linejoin="round"/>
<path d="M3.65786 27.8237L1.99177 38.0441C1.87466 38.7622 2.42903 39.4143 3.15669 39.4143C3.67278 39.4143 4.12903 39.079 4.28309 38.5864L6.86739 30.3251H8.35153C8.98856 30.3251 9.527 29.8533 9.61075 29.2218L9.79614 27.8237H3.65786Z" stroke="#EB4B38" stroke-width="1.17188" stroke-miterlimit="10" stroke-linecap="round" stroke-linejoin="round"/>
<path d="M20.1978 30.0869H23.9132C24.7963 30.0869 25.5122 29.371 25.5122 28.4879V26.9813C25.5122 26.0983 24.7963 25.3823 23.9132 25.3823H16.4823C15.5992 25.3823 14.8833 26.0982 14.8833 26.9813V28.4879C14.8833 29.371 15.5992 30.0869 16.4823 30.0869H17.4546" stroke="#EB4B38" stroke-width="1.17188" stroke-miterlimit="10" stroke-linecap="round" stroke-linejoin="round"/>
<path d="M20.1978 30.0864V39.4137" stroke="#EB4B38" stroke-width="1.17188" stroke-miterlimit="10" stroke-linecap="round" stroke-linejoin="round"/>
<path d="M25.2844 39.4145V37.6073C25.2844 36.9464 24.7487 36.4106 24.0878 36.4106H16.3074C15.6465 36.4106 15.1108 36.9463 15.1108 37.6073V39.4145" stroke="#EB4B38" stroke-width="1.17188" stroke-miterlimit="10" stroke-linecap="round" stroke-linejoin="round"/>
<path d="M20.1976 23.1069H26.2205C26.7878 23.1069 27.2476 22.647 27.2476 22.0799V16.0978C27.2476 15.5306 26.7877 15.0708 26.2205 15.0708H22.4904C21.2241 15.0708 20.1976 16.0974 20.1976 17.3637V23.1069Z" stroke="#EB4B38" stroke-width="1.17188" stroke-miterlimit="10" stroke-linecap="round" stroke-linejoin="round"/>
<path d="M20.1978 23.1069H14.1748C13.6076 23.1069 13.1478 22.647 13.1478 22.0799V16.0978C13.1478 15.5306 13.6076 15.0708 14.1748 15.0708H17.9049C19.1712 15.0708 20.1978 16.0974 20.1978 17.3637V23.1069Z" stroke="#EB4B38" stroke-width="1.17188" stroke-miterlimit="10" stroke-linecap="round" stroke-linejoin="round"/>
<path d="M1.83523 17.583C1.98664 17.583 2.14039 17.5522 2.28773 17.487L35.6721 2.73218C36.2383 2.48194 36.4944 1.82014 36.2441 1.25397C35.9939 0.687879 35.3323 0.431551 34.766 0.681941L1.38164 15.4368C0.279218 15.8819 0.671093 17.6251 1.83523 17.583Z" stroke="#EB4B38" stroke-width="1.17188" stroke-miterlimit="10" stroke-linecap="round" stroke-linejoin="round"/>
<path d="M33.4903 3.69629L36.3401 17.5836" stroke="#EB4B38" stroke-width="1.17188" stroke-miterlimit="10" stroke-linecap="round" stroke-linejoin="round"/>
<path d="M17.3477 18.1172H15.7348" stroke="#EB4B38" stroke-width="1.17188" stroke-miterlimit="10" stroke-linecap="round" stroke-linejoin="round"/>
<path d="M24.4507 18.1172H22.8379" stroke="#EB4B38" stroke-width="1.17188" stroke-miterlimit="10" stroke-linecap="round" stroke-linejoin="round"/>
</g>
<defs>
<clipPath id="clip0_44_1942">
<rect width="40" height="40" fill="white" transform="matrix(-1 0 0 1 40 0)"/>
</clipPath>
</defs>
</svg>
