<svg width="92" height="92" viewBox="0 0 92 92" fill="none" xmlns="http://www.w3.org/2000/svg">
<path d="M70.4375 80.5H21.5625C19.6563 80.5 17.8281 79.7427 16.4802 78.3948C15.1323 77.0469 14.375 75.2187 14.375 73.3125V12.9375C14.375 11.0313 15.1323 9.20309 16.4802 7.85517C17.8281 6.50725 19.6563 5.75 21.5625 5.75H70.4375C72.3437 5.75 74.1719 6.50725 75.5198 7.85517C76.8677 9.20309 77.625 11.0313 77.625 12.9375V73.3125C77.625 75.2187 76.8677 77.0469 75.5198 78.3948C74.1719 79.7427 72.3437 80.5 70.4375 80.5ZM21.5625 8.625C20.4188 8.625 19.3219 9.07935 18.5131 9.8881C17.7044 10.6969 17.25 11.7938 17.25 12.9375V73.3125C17.25 74.4562 17.7044 75.5531 18.5131 76.3619C19.3219 77.1706 20.4188 77.625 21.5625 77.625H70.4375C71.5812 77.625 72.6781 77.1706 73.4869 76.3619C74.2956 75.5531 74.75 74.4562 74.75 73.3125V12.9375C74.75 11.7938 74.2956 10.6969 73.4869 9.8881C72.6781 9.07935 71.5812 8.625 70.4375 8.625H21.5625Z" fill="#EB4B38"/>
<path d="M28.75 86.25H25.875C24.7313 86.25 23.6344 85.7956 22.8256 84.9869C22.0169 84.1781 21.5625 83.0812 21.5625 81.9375V79.0625C21.5625 78.6813 21.714 78.3156 21.9835 78.046C22.2531 77.7764 22.6188 77.625 23 77.625H31.625C32.0062 77.625 32.3719 77.7764 32.6415 78.046C32.9111 78.3156 33.0625 78.6813 33.0625 79.0625V81.9375C33.0625 83.0812 32.6081 84.1781 31.7994 84.9869C30.9906 85.7956 29.8937 86.25 28.75 86.25ZM24.4375 80.5V81.9375C24.4375 82.3187 24.5889 82.6844 24.8585 82.954C25.1281 83.2236 25.4938 83.375 25.875 83.375H28.75C29.1312 83.375 29.4969 83.2236 29.7665 82.954C30.0361 82.6844 30.1875 82.3187 30.1875 81.9375V80.5H24.4375Z" fill="#EB4B38"/>
<path d="M66.125 86.25H63.25C62.1063 86.25 61.0094 85.7956 60.2006 84.9869C59.3919 84.1781 58.9375 83.0812 58.9375 81.9375V79.0625C58.9375 78.6813 59.0889 78.3156 59.3585 78.046C59.6281 77.7764 59.9938 77.625 60.375 77.625H69C69.3812 77.625 69.7469 77.7764 70.0165 78.046C70.2861 78.3156 70.4375 78.6813 70.4375 79.0625V81.9375C70.4375 83.0812 69.9831 84.1781 69.1744 84.9869C68.3656 85.7956 67.2687 86.25 66.125 86.25ZM61.8125 80.5V81.9375C61.8125 82.3187 61.9639 82.6844 62.2335 82.954C62.5031 83.2236 62.8688 83.375 63.25 83.375H66.125C66.5062 83.375 66.8719 83.2236 67.1415 82.954C67.4111 82.6844 67.5625 82.3187 67.5625 81.9375V80.5H61.8125Z" fill="#EB4B38"/>
<path d="M46 25.875C44.5785 25.875 43.1888 25.4535 42.0068 24.6637C40.8249 23.8739 39.9036 22.7514 39.3596 21.438C38.8156 20.1247 38.6733 18.6795 38.9506 17.2853C39.2279 15.8911 39.9125 14.6104 40.9177 13.6052C41.9229 12.6 43.2036 11.9154 44.5978 11.6381C45.992 11.3608 47.4372 11.5031 48.7505 12.0471C50.0639 12.5911 51.1864 13.5124 51.9762 14.6943C52.766 15.8763 53.1875 17.266 53.1875 18.6875C53.1875 20.5937 52.4303 22.4219 51.0823 23.7698C49.7344 25.1178 47.9062 25.875 46 25.875ZM46 14.375C45.1471 14.375 44.3133 14.6279 43.6041 15.1018C42.8949 15.5757 42.3422 16.2492 42.0158 17.0372C41.6894 17.8252 41.604 18.6923 41.7704 19.5288C41.9368 20.3654 42.3475 21.1338 42.9506 21.7369C43.5537 22.34 44.3221 22.7507 45.1587 22.9171C45.9952 23.0835 46.8623 22.9981 47.6503 22.6717C48.4383 22.3453 49.1119 21.7926 49.5857 21.0834C50.0596 20.3742 50.3125 19.5404 50.3125 18.6875C50.3125 17.5438 49.8582 16.4469 49.0494 15.6381C48.2406 14.8294 47.1438 14.375 46 14.375Z" fill="#EB4B38"/>
<path d="M46 28.75C45.6188 28.75 45.2531 28.5986 44.9835 28.329C44.7139 28.0594 44.5625 27.6937 44.5625 27.3125V20.125C44.5625 19.7438 44.7139 19.3781 44.9835 19.1085C45.2531 18.839 45.6188 18.6875 46 18.6875C46.3812 18.6875 46.7469 18.839 47.0165 19.1085C47.2861 19.3781 47.4375 19.7438 47.4375 20.125V27.3125C47.4375 27.6937 47.2861 28.0594 47.0165 28.329C46.7469 28.5986 46.3812 28.75 46 28.75Z" fill="#EB4B38"/>
<path d="M76.1875 34.5H15.8125C15.4313 34.5 15.0656 34.3486 14.796 34.079C14.5265 33.8094 14.375 33.4437 14.375 33.0625C14.375 32.6813 14.5265 32.3156 14.796 32.046C15.0656 31.7764 15.4313 31.625 15.8125 31.625H76.1875C76.5687 31.625 76.9344 31.7764 77.204 32.046C77.4735 32.3156 77.625 32.6813 77.625 33.0625C77.625 33.4437 77.4735 33.8094 77.204 34.079C76.9344 34.3486 76.5687 34.5 76.1875 34.5Z" fill="#EB4B38"/>
<path d="M66.125 24.4375H63.25C62.1063 24.4375 61.0094 23.9831 60.2006 23.1744C59.3919 22.3656 58.9375 21.2687 58.9375 20.125V17.25C58.9375 16.1063 59.3919 15.0094 60.2006 14.2006C61.0094 13.3919 62.1063 12.9375 63.25 12.9375H66.125C67.2687 12.9375 68.3656 13.3919 69.1744 14.2006C69.9831 15.0094 70.4375 16.1063 70.4375 17.25V20.125C70.4375 21.2687 69.9831 22.3656 69.1744 23.1744C68.3656 23.9831 67.2687 24.4375 66.125 24.4375ZM63.25 15.8125C62.8688 15.8125 62.5031 15.964 62.2335 16.2335C61.9639 16.5031 61.8125 16.8688 61.8125 17.25V20.125C61.8125 20.5062 61.9639 20.8719 62.2335 21.1415C62.5031 21.411 62.8688 21.5625 63.25 21.5625H66.125C66.5062 21.5625 66.8719 21.411 67.1415 21.1415C67.4111 20.8719 67.5625 20.5062 67.5625 20.125V17.25C67.5625 16.8688 67.4111 16.5031 67.1415 16.2335C66.8719 15.964 66.5062 15.8125 66.125 15.8125H63.25Z" fill="#EB4B38"/>
<path d="M28.75 24.4375H25.875C24.7313 24.4375 23.6344 23.9831 22.8256 23.1744C22.0169 22.3656 21.5625 21.2687 21.5625 20.125V17.25C21.5625 16.1063 22.0169 15.0094 22.8256 14.2006C23.6344 13.3919 24.7313 12.9375 25.875 12.9375H28.75C29.8937 12.9375 30.9906 13.3919 31.7994 14.2006C32.6081 15.0094 33.0625 16.1063 33.0625 17.25V20.125C33.0625 21.2687 32.6081 22.3656 31.7994 23.1744C30.9906 23.9831 29.8937 24.4375 28.75 24.4375ZM25.875 15.8125C25.4938 15.8125 25.1281 15.964 24.8585 16.2335C24.5889 16.5031 24.4375 16.8688 24.4375 17.25V20.125C24.4375 20.5062 24.5889 20.8719 24.8585 21.1415C25.1281 21.411 25.4938 21.5625 25.875 21.5625H28.75C29.1312 21.5625 29.4969 21.411 29.7665 21.1415C30.0361 20.8719 30.1875 20.5062 30.1875 20.125V17.25C30.1875 16.8688 30.0361 16.5031 29.7665 16.2335C29.4969 15.964 29.1312 15.8125 28.75 15.8125H25.875Z" fill="#EB4B38"/>
<path d="M46 74.75C42.304 74.75 38.6909 73.654 35.6178 71.6006C32.5446 69.5472 30.1494 66.6286 28.735 63.2139C27.3206 59.7992 26.9505 56.0418 27.6716 52.4168C28.3926 48.7917 30.1725 45.4619 32.7859 42.8484C35.3994 40.235 38.7292 38.4551 42.3543 37.7341C45.9793 37.013 49.7367 37.3831 53.1514 38.7975C56.5661 40.2119 59.4847 42.6071 61.5381 45.6803C63.5915 48.7534 64.6875 52.3665 64.6875 56.0625C64.6875 61.0187 62.7187 65.772 59.2141 69.2766C55.7095 72.7812 50.9562 74.75 46 74.75ZM46 40.25C42.8726 40.25 39.8154 41.1774 37.2151 42.9149C34.6147 44.6524 32.588 47.122 31.3912 50.0113C30.1944 52.9007 29.8812 56.08 30.4913 59.1474C31.1015 62.2147 32.6075 65.0322 34.8189 67.2436C37.0303 69.4551 39.8478 70.961 42.9151 71.5712C45.9825 72.1813 49.1618 71.8682 52.0512 70.6714C54.9405 69.4745 57.4101 67.4478 59.1476 64.8475C60.8851 62.2471 61.8125 59.1899 61.8125 56.0625C61.8125 51.8688 60.1466 47.8468 57.1811 44.8814C54.2157 41.916 50.1937 40.25 46 40.25Z" fill="#EB4B38"/>
<path d="M40.9113 58.5208C40.5322 58.5154 40.1705 58.3604 39.9051 58.0896C39.6373 57.8203 39.4871 57.4559 39.4871 57.0762C39.4871 56.6964 39.6373 56.3321 39.9051 56.0627L46.0001 49.9677C46.2751 49.7322 46.6288 49.6092 46.9906 49.6231C47.3524 49.6371 47.6956 49.7871 47.9516 50.0431C48.2076 50.2991 48.3576 50.6423 48.3715 51.0041C48.3855 51.3659 48.2624 51.7196 48.0269 51.9946L41.9319 58.0896C41.7988 58.2254 41.6401 58.3335 41.4649 58.4075C41.2897 58.4815 41.1015 58.5201 40.9113 58.5208Z" fill="#EB4B38"/>
<path d="M44.9797 62.5892C44.6005 62.5838 44.2388 62.4288 43.9734 62.158C43.7057 61.8886 43.5554 61.5243 43.5554 61.1445C43.5554 60.7648 43.7057 60.4004 43.9734 60.1311L50.0684 54.0361C50.3434 53.8006 50.6972 53.6775 51.0589 53.6915C51.4207 53.7055 51.7639 53.8555 52.0199 54.1115C52.2759 54.3675 52.4259 54.7107 52.4399 55.0724C52.4539 55.4342 52.3308 55.788 52.0953 56.063L46.0003 62.158C45.8672 62.2938 45.7084 62.4018 45.5332 62.4759C45.358 62.5499 45.1699 62.5884 44.9797 62.5892Z" fill="#EB4B38"/>
<path d="M76.1875 44.5625C73.1375 44.5625 70.2124 43.3509 68.0558 41.1942C65.8991 39.0376 64.6875 36.1125 64.6875 33.0625C64.6875 32.6813 64.8389 32.3156 65.1085 32.046C65.3781 31.7764 65.7438 31.625 66.125 31.625C66.5062 31.625 66.8719 31.7764 67.1415 32.046C67.4111 32.3156 67.5625 32.6813 67.5625 33.0625C67.5625 35.35 68.4712 37.5438 70.0887 39.1613C71.7062 40.7788 73.9 41.6875 76.1875 41.6875C76.5687 41.6875 76.9344 41.8389 77.204 42.1085C77.4736 42.3781 77.625 42.7438 77.625 43.125C77.625 43.5062 77.4736 43.8719 77.204 44.1415C76.9344 44.4111 76.5687 44.5625 76.1875 44.5625Z" fill="#EB4B38"/>
<path d="M15.8125 44.5625C15.4313 44.5625 15.0656 44.4111 14.796 44.1415C14.5265 43.8719 14.375 43.5062 14.375 43.125C14.375 42.7438 14.5265 42.3781 14.796 42.1085C15.0656 41.8389 15.4313 41.6875 15.8125 41.6875C18.1 41.6875 20.2938 40.7788 21.9113 39.1613C23.5288 37.5438 24.4375 35.35 24.4375 33.0625C24.4375 32.6813 24.5889 32.3156 24.8585 32.046C25.1281 31.7764 25.4938 31.625 25.875 31.625C26.2562 31.625 26.6219 31.7764 26.8915 32.046C27.1611 32.3156 27.3125 32.6813 27.3125 33.0625C27.3125 36.1125 26.1009 39.0376 23.9442 41.1942C21.7876 43.3509 18.8625 44.5625 15.8125 44.5625Z" fill="#EB4B38"/>
</svg>
