<svg width="40" height="26" viewBox="0 0 40 26" fill="none" xmlns="http://www.w3.org/2000/svg">
<path d="M34.0078 12.7992V3.99609" stroke="#EB4B38" stroke-width="1.17188" stroke-miterlimit="10" stroke-linecap="round" stroke-linejoin="round"/>
<path d="M5.31787 3.99609V24.5555C5.31787 24.8266 5.53818 25.0469 5.80928 25.0469H12.2358" stroke="#EB4B38" stroke-width="1.17188" stroke-miterlimit="10" stroke-linecap="round" stroke-linejoin="round"/>
<path d="M21.2975 3.41162V25.0468H14.9702" stroke="#EB4B38" stroke-width="1.17188" stroke-miterlimit="10" stroke-linecap="round" stroke-linejoin="round"/>
<path d="M36.8383 15.9007V24.5554C36.8383 24.8265 36.618 25.0468 36.3469 25.0468H21.2976V12.7993" stroke="#EB4B38" stroke-width="1.17188" stroke-miterlimit="10" stroke-linecap="round" stroke-linejoin="round"/>
<path d="M8.55811 6.23928V8.91748C8.55811 9.14482 8.7424 9.32912 8.96975 9.32912H11.2297C11.457 9.32912 11.6413 9.14482 11.6413 8.91748V6.23928C11.6413 6.01193 11.457 5.82764 11.2297 5.82764H8.96975C8.7424 5.82771 8.55811 6.01193 8.55811 6.23928Z" stroke="#EB4B38" stroke-width="1.17188" stroke-miterlimit="10" stroke-linecap="round" stroke-linejoin="round"/>
<path d="M15.0793 14.1221V20.7928" stroke="#EB4B38" stroke-width="1.17188" stroke-miterlimit="10" stroke-linecap="round" stroke-linejoin="round"/>
<path d="M17.7058 14.1221V20.7928" stroke="#EB4B38" stroke-width="1.17188" stroke-miterlimit="10" stroke-linecap="round" stroke-linejoin="round"/>
<path d="M21.2976 12.7993L24.0314 15.7555C24.1171 15.8481 24.2376 15.9009 24.3639 15.9009H39.1857C39.3845 15.9009 39.488 15.6642 39.3531 15.5182L37.0821 13.0629C36.9268 12.8949 36.7085 12.7993 36.4797 12.7993H21.2976Z" stroke="#EB4B38" stroke-width="1.17188" stroke-miterlimit="10" stroke-linecap="round" stroke-linejoin="round"/>
<path d="M31.48 0.953125H34.0077C34.351 0.953125 34.6786 1.09664 34.9113 1.34906L38.6311 5.38234C38.7845 5.54867 38.7741 5.80797 38.6077 5.96141L37.4028 7.07266C37.2363 7.22609 36.9771 7.21562 36.8237 7.04922L33.7124 3.67578C33.5573 3.50758 33.3388 3.41188 33.1099 3.41188H6.21556C5.98673 3.41188 5.76822 3.50758 5.61306 3.67578L2.50181 7.04922C2.34838 7.21562 2.08916 7.22609 1.92275 7.07266L0.717907 5.96141C0.551579 5.80797 0.541032 5.54875 0.694469 5.38234L4.41423 1.34906C4.64697 1.09672 4.97463 0.953125 5.31791 0.953125H28.7456" stroke="#EB4B38" stroke-width="1.17188" stroke-miterlimit="10" stroke-linecap="round" stroke-linejoin="round"/>
<path d="M25.2021 18.9233H28.5997" stroke="#EB4B38" stroke-width="1.17188" stroke-miterlimit="10" stroke-linecap="round" stroke-linejoin="round"/>
<path d="M25.2021 22.0244H28.5997" stroke="#EB4B38" stroke-width="1.17188" stroke-miterlimit="10" stroke-linecap="round" stroke-linejoin="round"/>
<path d="M7.18546 25.047L10.0988 23.2456C10.2823 23.1321 10.3391 22.8914 10.2256 22.7079L7.07101 17.6061C6.95757 17.4226 6.71679 17.3659 6.53335 17.4793L5.31812 18.2307" stroke="#EB4B38" stroke-width="1.17188" stroke-miterlimit="10" stroke-linecap="round" stroke-linejoin="round"/>
</svg>
