<svg width="40" height="40" viewBox="0 0 40 40" fill="none" xmlns="http://www.w3.org/2000/svg">
<g clip-path="url(#clip0_44_1923)">
<path d="M22.2521 4.7041L20.0001 6.95691L17.748 9.20895" stroke="#EB4B38" stroke-width="1.17188" stroke-miterlimit="10" stroke-linecap="round" stroke-linejoin="round"/>
<path d="M17.748 4.7041L20.0001 6.95691L22.2521 9.20895" stroke="#EB4B38" stroke-width="1.17188" stroke-miterlimit="10" stroke-linecap="round" stroke-linejoin="round"/>
<path d="M15.2935 23.5298H11.1753" stroke="#EB4B38" stroke-width="1.17188" stroke-miterlimit="10" stroke-linecap="round" stroke-linejoin="round"/>
<path d="M28.8247 23.5298H24.7065" stroke="#EB4B38" stroke-width="1.17188" stroke-miterlimit="10" stroke-linecap="round" stroke-linejoin="round"/>
<path d="M33.9624 17.647H36.4725C38.097 17.647 39.414 18.964 39.414 20.5885C39.414 22.2128 38.0979 23.5301 36.4725 23.5301H35.8842" stroke="#EB4B38" stroke-width="1.17188" stroke-miterlimit="10" stroke-linecap="round" stroke-linejoin="round"/>
<path d="M4.11578 23.5301H3.5275C1.90297 23.5301 0.585938 22.2131 0.585938 20.5885C0.585938 18.9642 1.90211 17.647 3.5275 17.647H31.217" stroke="#EB4B38" stroke-width="1.17188" stroke-miterlimit="10" stroke-linecap="round" stroke-linejoin="round"/>
<path d="M4.11572 30.0208V33.3482C4.11572 34.7378 5.24127 35.8842 6.65174 35.8842H8.63939C10.0511 35.8842 11.1754 34.7366 11.1754 33.3482C11.1754 31.9189 11.1754 24.521 11.1754 23.5298H4.11572V27.2753" stroke="#EB4B38" stroke-width="1.17188" stroke-miterlimit="10" stroke-linecap="round" stroke-linejoin="round"/>
<path d="M9.41046 35.7646V37.0605C9.41046 38.0355 8.62054 38.8254 7.64554 38.8254C6.67054 38.8254 5.88062 38.0355 5.88062 37.0605V35.7646" stroke="#EB4B38" stroke-width="1.17188" stroke-miterlimit="10" stroke-linecap="round" stroke-linejoin="round"/>
<path d="M33.3484 35.8842H31.3607C29.949 35.8842 28.8247 34.7366 28.8247 33.3482C28.8247 31.9189 28.8247 24.521 28.8247 23.5298H35.8844V33.3482C35.8843 34.7379 34.7588 35.8842 33.3484 35.8842Z" stroke="#EB4B38" stroke-width="1.17188" stroke-miterlimit="10" stroke-linecap="round" stroke-linejoin="round"/>
<path d="M34.1192 35.7646V37.0605C34.1192 38.0355 33.3293 38.8254 32.3543 38.8254C31.3793 38.8254 30.5894 38.0355 30.5894 37.0605V35.7646" stroke="#EB4B38" stroke-width="1.17188" stroke-miterlimit="10" stroke-linecap="round" stroke-linejoin="round"/>
<path d="M11.1753 32.9424H28.8245" stroke="#EB4B38" stroke-width="1.17188" stroke-miterlimit="10" stroke-linecap="round" stroke-linejoin="round"/>
<path d="M24.7064 23.5298V24.7825C24.7064 26.3655 23.4239 27.648 21.841 27.648H18.1589C16.576 27.648 15.2935 26.3655 15.2935 24.7825V23.5298H24.7064Z" stroke="#EB4B38" stroke-width="1.17188" stroke-miterlimit="10" stroke-linecap="round" stroke-linejoin="round"/>
<path d="M23.5613 1.17432H16.4389C14.5068 1.17432 12.9404 2.7408 12.9404 4.67275V9.44197C12.9404 11.374 14.5069 12.9404 16.4389 12.9404H17.8485L18.9184 14.6959C19.4125 15.5054 20.5876 15.5054 21.0818 14.6959L22.1517 12.9404H23.5613C25.4932 12.9404 27.0597 11.3739 27.0597 9.44197V4.67283C27.0598 2.7408 25.4933 1.17432 23.5613 1.17432Z" stroke="#EB4B38" stroke-width="1.17188" stroke-miterlimit="10" stroke-linecap="round" stroke-linejoin="round"/>
</g>
<defs>
<clipPath id="clip0_44_1923">
<rect width="40" height="40" fill="white"/>
</clipPath>
</defs>
</svg>
