<svg width="42" height="40" viewBox="0 0 42 40" fill="none" xmlns="http://www.w3.org/2000/svg">
<path d="M37.8988 34.1573L38.2911 34.4633C38.7455 34.8698 39.0377 35.3357 39.053 35.9422C39.0765 36.8661 38.5843 37.0143 37.7342 37.2009C36.9208 37.3794 36.0798 37.474 35.2468 37.5194L33.5691 37.5854L7.66656 37.5865C6.93138 37.5858 6.18343 37.6661 5.60823 37.1274C4.51954 36.1078 5.59165 34.5101 6.0791 33.4729L7.05354 31.1996C8.31534 27.8622 9.0876 23.9841 9.41355 20.479C9.5019 19.5288 9.57796 18.5813 9.55777 17.6265C9.52668 16.156 8.3498 15.5226 7.2324 14.7569L5.5717 13.5659C3.81511 12.2747 2.9826 11.2609 2.94567 8.95568C2.91882 7.28005 3.79488 4.80168 5.06444 3.56827C6.02888 2.63129 7.18225 2.21055 8.52734 2.19873L29.0474 2.20466C29.872 2.24086 30.7582 2.3646 31.5554 2.55306C33.6683 3.05246 35.3208 4.76225 36.4092 6.48022C36.9318 7.30514 37.8441 8.95693 38.0099 9.92803C38.2411 11.2831 37.5466 12.9586 35.971 13.1933C35.5056 13.2627 35.2278 13.1369 34.9154 13.4654L34.288 14.118C33.0211 15.3199 31.5828 15.804 29.8311 16.0254C29.7034 16.0416 29.4271 16.0286 29.3211 16.0889L29.3224 18.1735L36.3271 18.1702C37.0087 18.1654 37.5373 18.1208 37.5398 18.9094L37.4657 21.0195C37.1626 24.3964 35.8014 27.8358 33.0821 30.118C32.5953 30.5266 32.0913 30.8831 31.4996 31.143C32.6402 31.306 33.6848 31.8641 34.6056 32.5035C34.8966 32.7056 35.1327 32.9883 35.4914 33.0727C36.3415 33.2728 37.1926 33.6724 37.8988 34.1573ZM8.77305 3.40806C6.70988 3.44282 5.70058 4.3333 4.89603 6.1347C4.01397 8.10959 3.77377 10.41 5.56276 12.0438L5.78964 12.2246C6.4623 11.9688 6.79007 12.0088 7.50868 12.0082L35.0863 12.0067C36.099 12.0035 36.5699 11.7483 36.7789 10.676C36.4716 10.6435 36.1529 10.6586 35.8435 10.6582L12.383 10.659L7.12454 10.6631C6.91804 10.6637 6.69704 10.6801 6.49247 10.6601C5.81052 10.5931 5.94776 9.51889 6.64524 9.4685C7.01691 9.4417 7.40111 9.4592 7.77422 9.45904L36.4956 9.46115C35.7279 7.40446 34.1583 4.97129 32.057 4.01298C30.4561 3.2829 28.2384 3.40905 26.4828 3.4081L8.77305 3.40806ZM8.6705 13.2137L7.40157 13.2222C6.97931 13.2398 7.10777 13.234 7.43488 13.4522L8.07838 13.8546C10.0542 15.0826 10.817 15.9172 10.8119 18.1524L10.7274 19.9508C10.4757 23.0758 9.93549 26.1512 9.04206 29.169L8.27244 31.533L6.77051 34.9437C6.55528 35.4063 6.01021 36.3512 6.9107 36.3637L33.3296 36.3599C33.6136 36.3564 33.8878 36.3091 34.17 36.2997C34.5844 36.2861 35.0028 36.3016 35.416 36.2716L35.4535 36.2551C35.5008 36.2416 35.5768 36.2478 35.627 36.2451L37.0766 36.0987C37.3146 36.0616 37.5663 36.0244 37.7881 35.931C37.5918 35.3504 36.9069 34.9532 36.3646 34.6884C35.4844 34.2587 34.7145 34.2508 33.7372 34.2486L20.1279 34.2469C19.6531 34.2466 19.1462 34.2792 18.6745 34.234C17.3026 34.1026 15.9208 33.2876 15.0785 32.2754C12.507 29.1852 12.7823 22.9549 13.2359 19.2463C13.4418 17.5634 13.6216 15.6717 15.3108 14.7104C15.6866 14.4965 15.8312 14.515 16.0356 14.1283L16.3434 13.5535C16.4038 13.4479 16.5121 13.3219 16.5515 13.2107L8.6705 13.2137ZM23.8419 13.2029C24.1729 13.4539 24.5022 13.7079 24.8661 13.9177C27.0594 15.1829 30.2854 15.2488 32.4805 13.9475L33.2259 13.4291C33.3125 13.3594 33.3525 13.2807 33.4526 13.2234L23.8419 13.2029ZM18.4949 13.2137L18.4547 13.224C18.1878 13.2667 18.1453 13.1554 17.9725 13.3779C17.7268 13.6939 17.4947 14.0316 17.2965 14.3765C16.9813 14.9255 16.9917 15.1944 16.3829 15.5008C15.0517 16.1707 14.8312 17.064 14.633 18.4151L14.2607 22.1551L14.2601 25.0231C14.3616 27.466 14.7418 30.755 16.9971 32.3196C17.8398 32.9043 18.4683 33.0682 19.4653 33.069L21.3192 33.0658C21.5199 33.0649 21.7309 33.0997 21.909 32.9942L21.938 32.9775C22.2542 32.7911 22.5441 32.5365 22.8454 32.3264C23.696 31.7333 24.6473 31.341 25.6914 31.1922C25.1858 30.9826 24.7053 30.6669 24.275 30.3426C21.2867 28.0331 19.7329 24.1161 19.575 20.5155L19.5651 19.342C19.5628 18.8387 19.4611 18.1904 20.2577 18.1701L27.992 18.172L27.9888 16.076C25.7819 15.8115 24.0027 15.1637 22.4815 13.5083L22.2996 13.3076C22.29 13.2968 22.241 13.234 22.2306 13.2284C22.148 13.184 19.4278 13.2151 19.1743 13.2152L18.699 13.2155C18.6429 13.2155 18.5454 13.2275 18.4949 13.2137ZM22.2688 19.3894L20.8744 19.3911C20.8748 19.9044 20.8651 20.4194 20.9065 20.9316C21.2019 24.5823 22.9855 28.7566 26.7153 30.3253C29.0113 31.2909 30.9343 30.4939 32.6557 28.8442C35.2209 26.3858 36.2668 22.7737 36.2635 19.3855L33.1137 19.3894L29.3174 19.3972V20.3863C29.4499 20.4172 29.5834 20.4327 29.713 20.4741C33.3476 21.6361 32.8452 28.9434 28.9253 29.4429C28.2215 29.5325 27.4663 29.2726 26.9141 28.8657C25.6079 27.9031 24.9961 26.269 25.0009 24.7316C25.0063 23.0244 25.9112 20.7269 27.9374 20.4411C28.1076 20.4171 28.0373 20.3458 28.0374 20.1978L28.0379 19.3891L22.2688 19.3894ZM29.2685 21.6262L29.218 28.1062C29.5697 27.9158 29.8307 27.7253 30.0703 27.4083C30.6488 26.6364 30.9095 25.6171 30.9117 24.679C30.9141 23.5769 30.5108 21.9718 29.2685 21.6262ZM27.9456 21.709C27.2846 21.9206 26.9598 22.3755 26.6975 22.9183C26.0294 24.3007 26.1823 26.0962 27.11 27.3448C27.4786 27.7942 27.5703 27.7548 27.9659 28.0429L27.9456 21.709ZM27.2424 32.2704C26.3243 32.2928 25.3165 32.3873 24.496 32.8118C24.38 32.8717 24.294 32.9637 24.1781 33.0281L30.1192 33.0665L33.1551 33.0701C32.7518 32.8776 32.3984 32.6488 31.9606 32.5111C30.9842 32.2038 29.8704 32.264 28.8554 32.264L27.2424 32.2704Z" fill="#EB4B38"/>
<path d="M10.732 5.72297L9.94604 5.72927C9.81715 5.72934 9.66201 5.74246 9.53633 5.71997C8.89665 5.60553 8.7594 4.58964 9.76284 4.47978L10.4058 4.47274C10.5597 4.47276 10.7413 4.45804 10.8848 4.51898L11.0447 4.59445C11.6504 4.96464 11.3658 5.63739 10.732 5.72297Z" fill="#EB4B38"/>
<path d="M14.1272 5.73885C13.8241 5.75877 13.1782 5.79859 12.9339 5.67538C12.2631 5.337 12.5025 4.59587 13.3028 4.47879C13.6731 4.46187 14.2033 4.40648 14.53 4.58816C15.2595 4.99377 14.7324 5.61287 14.1272 5.73885Z" fill="#EB4B38"/>
<path d="M17.5609 5.74365C17.3274 5.74131 16.5869 5.78387 16.4 5.6587L16.3303 5.61323C15.6466 5.15177 16.1057 4.53901 16.7932 4.48067C17.1769 4.47324 17.778 4.39266 18.0857 4.64913C18.6005 5.0782 18.2295 5.72009 17.5609 5.74365Z" fill="#EB4B38"/>
</svg>
