<svg width="40" height="40" viewBox="0 0 40 40" fill="none" xmlns="http://www.w3.org/2000/svg">
<path d="M23.6999 36.0499C21.7332 36.0499 18.9499 34.6665 16.7499 28.0499L15.5499 24.4499L11.9499 23.2499C5.34989 21.0499 3.96655 18.2665 3.96655 16.2999C3.96655 14.3499 5.34989 11.5499 11.9499 9.33321L26.0999 4.61654C29.6332 3.43321 32.5832 3.78321 34.3999 5.58321C36.2165 7.38321 36.5666 10.3499 35.3832 13.8832L30.6666 28.0332C28.4499 34.6665 25.6666 36.0499 23.6999 36.0499ZM12.7332 11.7165C8.09989 13.2665 6.44989 15.0999 6.44989 16.2999C6.44989 17.4999 8.09989 19.3332 12.7332 20.8665L16.9332 22.2665C17.2999 22.3832 17.5999 22.6832 17.7166 23.0499L19.1166 27.2499C20.6499 31.8832 22.4999 33.5332 23.6999 33.5332C24.8999 33.5332 26.7332 31.8832 28.2832 27.2499L32.9999 13.0999C33.8499 10.5332 33.6999 8.43321 32.6166 7.34987C31.5332 6.26654 29.4332 6.13321 26.8832 6.98321L12.7332 11.7165Z" fill="white"/>
<path d="M16.8501 24.0002C16.5334 24.0002 16.2167 23.8835 15.9667 23.6335C15.4834 23.1502 15.4834 22.3502 15.9667 21.8668L21.9334 15.8835C22.4167 15.4002 23.2167 15.4002 23.7001 15.8835C24.1834 16.3668 24.1834 17.1668 23.7001 17.6502L17.7334 23.6335C17.5001 23.8835 17.1667 24.0002 16.8501 24.0002Z" fill="white"/>
</svg>
